<?xml version="1.0" encoding="utf-8"?>
<!-- Generator: Adobe Illustrator 21.0.0, SVG Export Plug-In . SVG Version: 6.00 Build 0)  -->
<svg version="1.1" baseProfile="tiny" id="Ebene_1" xmlns="http://www.w3.org/2000/svg" xmlns:xlink="http://www.w3.org/1999/xlink"
	 x="0px" y="0px" viewBox="0 0 529.07 80.947" xml:space="preserve">
<g>
	<g>
		<g>
			<g>
				<g>
					<g>
						<polygon fill="#164194" points="437.915,61.757 436.884,2.406 455.608,2.406 455.608,77.234 428.687,77.234 410.014,15.832 
							409.615,15.832 410.641,77.234 392.049,77.234 392.049,2.406 420.122,2.406 437.506,61.757 						"/>
						<polygon fill="#164194" points="97.723,9.396 87.379,78.015 66.94,78.015 80.942,2.406 114.608,2.406 128.529,78.015 
							108.24,78.015 98.14,9.396 						"/>
						<polygon fill="#164194" points="185.859,60.213 195.196,2.406 226.043,2.406 227.713,78.015 208.786,78.015 208.304,10.022 
							207.882,10.04 195.255,78.015 176.083,78.015 163.419,10.022 163.006,10.022 162.529,78.015 143.625,78.015 145.305,2.406 
							176.151,2.406 185.447,60.213 						"/>
						<path fill="#164194" d="M35.113,56.673c0.731,1.824,0.499,4.184,0.14,5.619c-0.617,2.46-2.306,5.038-7.362,5.038
							c-4.72,0-7.598-2.705-7.598-6.836l-0.014-7.326H0.004L0,59.006c0,16.876,13.267,21.941,27.469,21.941
							c13.703,0,24.932-4.639,26.743-17.257c0.931-6.536,0.245-10.825-0.082-12.427c-3.195-15.841-31.876-20.525-34.033-29.403
							c-0.354-1.552-0.268-3.104-0.073-3.958c0.531-2.424,2.178-5.084,6.908-5.084c4.435,0,7.022,2.742,7.022,6.845v4.675h18.878
							v-5.283C52.833,2.569,38.036,0,27.328,0C13.885,0,2.909,4.457,0.898,16.785c-0.554,3.332-0.622,6.364,0.177,10.185
							C4.353,42.412,31.219,46.896,35.113,56.673"/>
						<path fill="#164194" d="M280.964,56.528c0.703,1.815,0.463,4.131,0.145,5.556c-0.608,2.488-2.315,4.984-7.303,4.984
							c-4.684,0-7.521-2.669-7.521-6.754l-0.018-7.262h-20.081l-0.009,5.782c0,16.694,13.14,21.714,27.22,21.714
							c13.531,0,24.688-4.585,26.453-17.085c0.922-6.454,0.236-10.703-0.068-12.309c-3.191-15.687-31.586-20.316-33.688-29.113
							c-0.358-1.516-0.263-3.041-0.081-3.886c0.522-2.415,2.138-5.038,6.831-5.038c4.384,0,6.954,2.696,6.954,6.763v4.63h18.673
							v-5.247c0-16.294-14.638-18.846-25.223-18.846c-13.317,0-24.206,4.367-26.167,16.613c-0.563,3.304-0.626,6.309,0.168,10.094
							C250.498,42.412,277.083,46.851,280.964,56.528"/>
						<path fill="#164194" d="M344.409,66.659c5.265,0,6.899-3.568,7.262-5.447c0.163-0.817,0.191-1.924,0.181-2.887V2.388h19.145
							v54.204c0.027,1.407-0.123,4.248-0.186,4.993c-1.334,14.098-12.5,18.646-26.403,18.646c-13.898,0-25.06-4.548-26.358-18.646
							c-0.073-0.745-0.209-3.586-0.182-4.993V2.388h19.113v55.937c-0.009,0.963,0.018,2.07,0.177,2.887
							C337.546,63.091,339.18,66.659,344.409,66.659"/>
						<path fill="#164194" d="M502.132,65.887c5.465,0,7.39-3.441,7.725-5.47c0.15-0.858,0.2-1.92,0.172-2.873V46.569h-7.743V35.522
							h26.784v20.28c-0.018,1.425-0.045,2.469-0.263,5.002c-1.234,13.753-13.199,18.691-26.607,18.691
							c-13.395,0-25.35-4.938-26.585-18.691c-0.227-2.533-0.258-3.577-0.272-5.002l0.014-31.818c0-1.344,0.163-3.713,0.331-4.938
							c1.656-14.18,13.117-18.691,26.521-18.691c13.399,0,25.159,4.466,26.562,18.691c0.227,2.36,0.136,4.938,0.136,4.938
							l0.004,2.533h-19.054V22.25c0,0-0.004-1.788-0.236-2.832c-0.368-1.67-1.765-5.501-7.562-5.501
							c-5.497,0-7.117,3.64-7.539,5.501c-0.209,0.953-0.299,2.306-0.299,3.54v34.587c-0.009,0.953,0.027,2.015,0.168,2.873
							C494.751,62.446,496.676,65.887,502.132,65.887"/>
					</g>
				</g>
			</g>
		</g>
	</g>
</g>
</svg>
